<svg xmlns="http://www.w3.org/2000/svg" viewBox="0 0 24 24" role="img" aria-label="GitHub">
  <path fill="currentColor" d="M12 0C5.37 0 0 5.5 0 12.29c0 5.43 3.44 10.03 8.2 11.65.6.11.82-.27.82-.59 0-.29-.01-1.06-.02-2.08-3.34.74-4.04-1.65-4.04-1.65-.55-1.42-1.34-1.8-1.34-1.8-1.09-.76.08-.75.08-.75 1.2.09 1.84 1.27 1.84 1.27 1.07 1.88 2.81 1.34 3.5 1.02.11-.79.42-1.34.76-1.65-2.66-.31-5.46-1.36-5.46-6.07 0-1.34.47-2.44 1.24-3.3-.12-.31-.54-1.56.12-3.25 0 0 1.01-.33 3.3 1.26A11.2 11.2 0 0 1 12 5.94c1.02 0 2.04.14 3 .41 2.29-1.59 3.3-1.26 3.3-1.26.66 1.69.24 2.94.12 3.25.77.86 1.24 1.96 1.24 3.3 0 4.72-2.8 5.75-5.47 6.06.43.38.81 1.13.81 2.27 0 1.64-.02 2.96-.02 3.36 0 .33.22.71.83.59A12.22 12.22 0 0 0 24 12.29C24 5.5 18.63 0 12 0Z"/>
</svg>
