<svg xmlns="http://www.w3.org/2000/svg" viewBox="0 0 24 24" role="img" aria-label="Website">
  <path fill="currentColor" d="M12 0a12 12 0 1 0 0 24 12 12 0 0 0 0-24Zm8.27 7h-3.54a17.6 17.6 0 0 0-1.6-4.05A10.06 10.06 0 0 1 20.27 7ZM12 2.03c.84 1.22 1.57 2.89 2.04 4.97H9.96C10.43 4.92 11.16 3.25 12 2.03ZM2.26 14a10.33 10.33 0 0 1 0-4h4.01a16.4 16.4 0 0 0 0 4H2.26Zm1.47 3h3.54c.4 1.54.95 2.91 1.6 4.05A10.06 10.06 0 0 1 3.73 17Zm3.54-10H3.73a10.06 10.06 0 0 1 5.14-4.05A17.6 17.6 0 0 0 7.27 7ZM12 21.97c-.84-1.22-1.57-2.89-2.04-4.97h4.08c-.47 2.08-1.2 3.75-2.04 4.97ZM14.47 14H9.53a14.11 14.11 0 0 1 0-4h4.94a14.11 14.11 0 0 1 0 4Zm.66 7.05c.65-1.14 1.2-2.51 1.6-4.05h3.54a10.06 10.06 0 0 1-5.14 4.05ZM17.73 14a16.4 16.4 0 0 0 0-4h4.01a10.33 10.33 0 0 1 0 4h-4.01Z"/>
</svg>
